<?xml version="1.0" encoding="UTF-8"?>
<svg width="16px" height="16px" viewBox="0 0 16 16" version="1.1" xmlns="http://www.w3.org/2000/svg" xmlns:xlink="http://www.w3.org/1999/xlink">
    <title>file_type_procfile</title>
    <g id="file_type_procfile" stroke="none" stroke-width="1" fill="none" fill-rule="evenodd">
        <g transform="translate(4.000000, 1.000000)" fill="#A3789D" id="file_type_procfile.svg">
            <path d="M6.349,14 L6.349,6.34316667 C6.349,6.34316667 6.8635,4.5115 0.0128333333,7.09216667 C0,7.126 0,0.0128333333 0,0.0128333333 L2.23883333,0 L2.23883333,4.557 C2.23883333,4.557 8.50616667,2.16766667 8.50616667,6.36883333 L8.50616667,14 L6.349,14 Z M7.62416667,2.758 L5.25,2.758 C5.89668767,1.90777886 6.44464859,0.986813116 6.88333333,0.0128333333 L9.33333333,0.0128333333 C8.89827753,1.00515624 8.32265315,1.92969151 7.62416667,2.758 L7.62416667,2.758 L7.62416667,2.758 Z M0.0408333333,13.9871667 L0.0408333333,9.62616667 L2.2925,11.8066667 L0.0408333333,13.986 L0.0408333333,13.986 L0.0408333333,13.9871667 Z"></path>
        </g>
    </g>
</svg>