<?xml version="1.0" encoding="UTF-8"?>
<svg width="16px" height="16px" viewBox="0 0 16 16" version="1.1" xmlns="http://www.w3.org/2000/svg" xmlns:xlink="http://www.w3.org/1999/xlink">
    <title>file_type_git</title>
    <g id="file_type_git" stroke="none" stroke-width="1" fill="none" fill-rule="evenodd">
        <g transform="translate(1.000000, 1.000000)" fill="#D96C36" id="file_type_git.svg">
            <path d="M13.7422118,6.38021185 L7.62421185,0.265211846 C7.45530041,0.0954457649 7.22569378,0 6.98621185,0 C6.74672991,0 6.51712328,0.0954457649 6.34821185,0.265211846 L5.07821185,1.53521185 L6.69221185,3.14621185 C7.07965038,3.01429198 7.50839691,3.11471573 7.79695093,3.40497087 C8.08550494,3.69522602 8.18340679,4.12455543 8.04921185,4.51121185 L9.60121185,6.06421185 C10.0789125,5.9002986 10.6062297,6.09203934 10.8670793,6.5245009 C11.1279288,6.95696246 11.0515526,7.51283533 10.683732,7.85891844 C10.3159115,8.20500155 9.75642158,8.24741639 9.34063152,7.96073868 C8.92484146,7.67406097 8.76553846,7.13605491 8.95821185,6.66921185 L7.51121185,5.22421185 L7.51121185,9.03421185 C7.96129296,9.26099779 8.19236022,9.77089855 8.06616218,10.2588319 C7.93996414,10.7467652 7.49065065,11.0806937 6.9870536,11.0608224 C6.48345654,11.040951 6.06185194,10.672657 5.97449298,10.176297 C5.88713403,9.67993698 6.15766051,9.18982852 6.62421185,8.99921185 L6.62421185,5.15421185 C6.35980291,5.04557193 6.14961317,4.83600601 6.04018782,4.57192116 C5.93076247,4.30783631 5.93113101,4.01102414 6.04121185,3.74721185 L4.45821185,2.15921185 L0.265211846,6.35121185 C0.0954457649,6.52012328 0,6.74972991 0,6.98921185 C0,7.22869378 0.0954457649,7.45830041 0.265211846,7.62721185 L6.38021185,13.7422118 C6.54912328,13.9119779 6.77872991,14.0074237 7.01821185,14.0074237 C7.25769378,14.0074237 7.48730041,13.9119779 7.65621185,13.7422118 L13.7422118,7.65621185 C13.9119779,7.48730041 14.0074237,7.25769378 14.0074237,7.01821185 C14.0074237,6.77872991 13.9119779,6.54912328 13.7422118,6.38021185 Z"></path>
        </g>
    </g>
</svg>