<?xml version="1.0" encoding="UTF-8"?>
<svg width="16px" height="16px" viewBox="0 0 16 16" version="1.1" xmlns="http://www.w3.org/2000/svg" xmlns:xlink="http://www.w3.org/1999/xlink">
    <title>file_type_sketch</title>
    <g id="file_type_sketch" stroke="none" stroke-width="1" fill="none" fill-rule="evenodd">
        <g transform="translate(1.000000, 2.000000)" fill="#E6AC5C" id="file_type_sketch.svg">
            <path d="M6.57657143,12.0445 L2.98578571,5.37085714 L0.557571429,3.52857143 L6.57657143,12.0445 Z M13.4684286,3.52857143 L11.0402143,5.37085714 L7.44942857,12.0445 L13.4684286,3.52857143 Z M10.4357143,5.44235714 L3.56428571,5.44235714 L7,12.0714286 L10.4357143,5.44142857 L10.4357143,5.44142857 L10.4357143,5.44235714 Z M3.09164286,4.862 L0.5,2.92221429 L2.07857143,1.11428571 L4.3155,2.19142857 L3.09257143,4.862 L3.09257143,4.862 L3.09164286,4.862 Z M4.75007143,2.36507143 L3.56428571,4.96785714 L10.4357143,4.96785714 L9.25178571,2.36785714 L4.75007143,2.36785714 L4.75007143,2.36507143 Z M10.9065,4.86107143 L13.5,2.92221429 L11.9260714,1.11428571 L9.68821429,2.19142857 L10.9065,4.86478571 L10.9065,4.86478571 L10.9065,4.86107143 Z M9.249,1.88964286 L4.75007143,1.88964286 L2.57164286,0.827357143 L4.54857143,0 L9.4505,0 L11.4283571,0.827357143 L9.249,1.88964286 Z"></path>
        </g>
    </g>
</svg>