<?xml version="1.0" encoding="UTF-8"?>
<svg width="16px" height="16px" viewBox="0 0 16 16" version="1.1" xmlns="http://www.w3.org/2000/svg" xmlns:xlink="http://www.w3.org/1999/xlink">
    <title>file_type_shell</title>
    <g id="file_type_shell" stroke="none" stroke-width="1" fill="none" fill-rule="evenodd">
        <path d="M13.992,2.00132016 C14.2466214,1.98737405 14.4958881,2.08437183 14.6849368,2.27096437 C14.8739855,2.45755691 14.9873216,2.71845099 15,2.99622407 L15,2.99622407 L15,12.9987174 C14.9762149,13.5757632 14.5290377,14.0231007 14,13.9990759 L14,13.9990759 L2,13.9990759 C1.47096232,14.0231007 1.02378512,13.5757632 1,12.9987174 L1,12.9987174 L1,3.00058769 C1.02431796,2.42397475 1.47133519,1.97728495 2,2.00132016 L2,2.00132016 Z M4.45961941,4.54038059 L3.54038059,5.45961941 L6.08076118,8 L3.54038059,10.5403806 L4.45961941,11.4596194 L7.91923882,8 L4.45961941,4.54038059 Z M12.0666667,10 L8.06666667,10 L8.06666667,11 L12.0666667,11 L12.0666667,10 Z" id="Combined-Shape" fill="#A3789D"></path>
    </g>
</svg>