<?xml version="1.0" encoding="UTF-8"?>
<svg width="16px" height="16px" viewBox="0 0 16 16" version="1.1" xmlns="http://www.w3.org/2000/svg" xmlns:xlink="http://www.w3.org/1999/xlink">
    <title>file_type_c</title>
    <g id="file_type_c" stroke="none" stroke-width="1" fill="none" fill-rule="evenodd">
        <path d="M10.5123415,6.01037634 C10.4046399,4.98841945 9.56029749,4.20081533 8.53091551,4.16209866 C6.74567031,4.11860978 5.82580038,5.51351581 5.82580038,7.50748125 C5.82580038,9.50144669 6.84049102,11.0953144 8.5810506,11.0953144 C10.3216102,11.0953144 10.5123415,9.10352338 10.5123415,9.10352338 L13.8474149,9.30248504 C13.9165096,10.4823277 13.4808168,11.6360595 12.6485323,12.4771737 C11.4889022,13.5672546 9.9350621,14.1405702 8.34345386,14.0656053 C6.68902953,14.2210831 5.05199597,13.6276561 3.88361055,12.448906 C2.59990104,11.1959958 1.91788829,9.45316583 2.01117389,7.66404124 C1.89341263,5.68214236 2.7115974,3.75935366 4.22256736,2.46711932 C5.31146506,1.52443286 6.70549598,1.00657284 8.14727307,1.0091544 C11.1411596,0.838713882 13.7308673,3.06800515 14,6.04734189 L10.5123415,6.01037634 L10.5123415,6.01037634 Z" id="file_type_c.svg" fill="#245E8D"></path>
    </g>
</svg>