<?xml version="1.0" encoding="UTF-8"?>
<svg width="16px" height="16px" viewBox="0 0 16 16" version="1.1" xmlns="http://www.w3.org/2000/svg" xmlns:xlink="http://www.w3.org/1999/xlink">
    <title>file_type_rollup</title>
    <g id="file_type_rollup" stroke="none" stroke-width="1" fill="none" fill-rule="evenodd">
        <path d="M9.9,2.55555556 C10.3666667,2.4 10.8333333,2.47777778 11.3,2.55555556 C11.7666667,2.71111111 12.1555556,2.86666667 12.4666667,3.17777778 C12.5444444,3.25555556 12.5444444,3.33333333 12.6222222,3.41111111 C12.9333333,3.95555556 13.0888889,4.5 13.1666667,5.12222222 C13.3222222,6.44444444 12.9333333,7.68888889 12.0777778,8.7 C11.7666667,9.08888889 11.3777778,9.4 10.9111111,9.63333333 C10.7555556,9.71111111 10.7555556,9.78888889 10.8333333,9.94444444 L10.8333333,9.94444444 L12.9629557,14.2027778 C13.0342014,14.3388889 13.1277778,14.475 13.4,14.6111111 C13.4777778,14.8444444 13.4,15 13.1666667,15 L13.1666667,15 L4.14444444,15 C4.3,14.7666667 4.53333333,14.4555556 4.68888889,14.1444444 C5,13.6777778 5.23333333,13.2111111 5.54444444,12.7444444 C5.93333333,12.1222222 6.24444444,11.5777778 6.63333333,11.0333333 C7.17777778,10.2555556 7.72222222,9.47777778 8.34444444,8.7 C8.73333333,8.23333333 9.2,7.76666667 9.74444444,7.3 C10.1333333,6.98888889 10.5222222,6.6 10.9111111,6.28888889 L10.9111111,6.28888889 L11.0666667,6.13333333 C11.2222222,5.9 11.2222222,5.58888889 11.1444444,5.35555556 C10.9888889,5.04444444 10.7555556,4.65555556 10.6,4.26666667 C10.6,4.42222222 10.6777778,4.57777778 10.7555556,4.73333333 C10.8333333,4.96666667 10.9111111,5.2 10.9111111,5.51111111 C10.9111111,5.58888889 10.9111111,5.74444444 10.8333333,5.82222222 C10.7555556,6.05555556 10.6,6.05555556 10.4444444,6.05555556 C10.2111111,5.97777778 10.0555556,5.9 9.9,5.82222222 C9.43333333,5.43333333 9.04444444,5.04444444 8.88888889,4.42222222 C8.73333333,3.87777778 8.81111111,3.41111111 9.2,2.94444444 C9.35555556,2.71111111 9.58888889,2.63333333 9.9,2.55555556 Z M8.65555556,1 C10.2111111,1 11.4555556,1.7 12.3888889,2.86666667 L12.3888889,2.86666667 L12.3888889,2.94444444 L12.3111111,2.86666667 L12.2333333,2.78888889 C11.7666667,2.32222222 11.2222222,2.08888889 10.6,2.01111111 C10.1333333,1.93333333 9.66666667,2.01111111 9.27777778,2.08888889 C8.88888889,2.24444444 8.57777778,2.47777778 8.26666667,2.78888889 C7.95555556,3.17777778 7.64444444,3.64444444 7.33333333,4.11111111 C6.63333333,5.12222222 6.08888889,6.21111111 5.46666667,7.3 C5.07777778,8 4.68888889,8.7 4.3,9.47777778 C3.75555556,10.4888889 3.21111111,11.5 2.82222222,12.5111111 L2.82222222,12.5111111 L2.82222222,1.31111111 C2.82222222,1.07777778 2.9,1 3.05555556,1 L3.05555556,1 Z" id="Combined-Shape" fill="#E51111" fill-rule="nonzero"></path>
    </g>
</svg>