<?xml version="1.0" encoding="UTF-8"?>
<svg width="16px" height="16px" viewBox="0 0 16 16" version="1.1" xmlns="http://www.w3.org/2000/svg" xmlns:xlink="http://www.w3.org/1999/xlink">
    <title>file_type_jupyter</title>
    <g id="file_type_jupyter" stroke="none" stroke-width="1" fill="none" fill-rule="evenodd">
        <g id="Jupyter_logo" transform="translate(1.769058, 1.000000)" fill-rule="nonzero">
            <g id="g">
                <g id="path7_fill-link" transform="translate(10.114225, 0.000000)" fill="#767677">
                    <path d="M1.92960279,0.90732054 C1.94130086,1.09869729 1.89576925,1.28922293 1.7988026,1.45462778 C1.70183595,1.62003584 1.55783063,1.75283264 1.38512408,1.83610781 C1.21241752,1.91937978 1.01883298,1.94935769 0.829030481,1.92222431 C0.639227977,1.89508772 0.46179868,1.81206853 0.319344572,1.6837385 C0.176890784,1.55541167 0.0758614832,1.38758144 0.0291270122,1.20163137 C-0.0176074908,1.01568129 -0.00793175149,0.820026555 0.0569215489,0.639595947 C0.121774817,0.45916534 0.23887009,0.302121599 0.393290084,0.188473674 C0.547710399,0.074825749 0.732466989,0.00971701725 0.924019724,0.00144160056 C1.04961082,-0.00546929485 1.1753299,0.0125154035 1.29394247,0.0543614817 C1.41255823,0.0962073679 1.52173171,0.161089434 1.6151851,0.245275878 C1.70863529,0.329462643 1.78452557,0.431292827 1.83848517,0.544910675 C1.89244477,0.658528522 1.92341139,0.78169425 1.92960279,0.90732054 L1.92960279,0.90732054 Z" id="path7_fill"></path>
                </g>
                <g id="path8_fill-link" transform="translate(0.428759, 7.784657)" fill="#F37726">
                    <path d="M5.98220734,2.27894192 C3.41842248,2.27894192 1.16510689,1.35881942 0,0 C0.452065223,1.22241336 1.26776579,2.27699651 2.33730749,3.02180151 C3.40683959,3.76661291 4.67890897,4.16587043 5.98220734,4.16587043 C7.2855377,4.16587043 8.55757508,3.76661291 9.62713598,3.02180151 C10.6966649,2.27699651 11.5123623,1.22241336 11.9644467,0 C10.8021907,1.35881942 8.5574151,2.27894192 5.98220734,2.27894192 Z" id="path8_fill"></path>
                </g>
                <g id="path9_fill-link" transform="translate(0.428759, 1.340671)" fill="#F37726">
                    <path d="M5.98220734,1.88693811 C8.5460242,1.88693811 10.799343,2.80706061 11.9644467,4.16587043 C11.5123623,2.94346666 10.6966649,1.88888352 9.62713598,1.14407852 C8.55757508,0.399273512 7.2855377,0 5.98220734,0 C4.67890897,0 3.40683959,0.399273512 2.33730749,1.14407852 C1.26776579,1.88888352 0.452065223,2.94346666 0,4.16587043 C1.16510689,2.80421289 3.40703158,1.88693811 5.98220734,1.88693811 Z" id="path9_fill"></path>
                </g>
                <g id="path10_fill-link" transform="translate(0.451156, 11.566692)" fill="#9E9E9E">
                    <path d="M2.43040894,1.1411892 C2.44544749,1.38224116 2.38838419,1.62231402 2.26649194,1.83081872 C2.14459649,2.03932342 1.96339156,2.20682087 1.74596292,2.31197234 C1.52853428,2.4171238 1.28472418,2.45516813 1.04559843,2.4212578 C0.806469481,2.38734427 0.582849437,2.28301513 0.403228352,2.12155869 C0.223606947,1.96010226 0.0961168362,1.74882662 0.0370002948,1.51465399 C-0.0221159587,1.28047817 -0.0101820051,1.03400913 0.0712817902,0.806639045 C0.152745617,0.579272162 0.300051098,0.381304045 0.49442916,0.237956264 C0.688810423,0.0946078418 0.921463196,0.0123698492 1.16274874,0.00172012057 C1.3208103,-0.00673442125 1.47899025,0.0160359918 1.62825266,0.0687303363 C1.77751188,0.121425097 1.91492903,0.203010832 2.03264888,0.308827512 C2.15036873,0.414644831 2.24609071,0.542616496 2.31433693,0.685437928 C2.38258635,0.828256161 2.42202895,0.983124432 2.43040894,1.1411892 L2.43040894,1.1411892 Z" id="path10_fill"></path>
                </g>
                <g id="path11_fill-link" transform="translate(0.000000, 1.516654)" fill="#616262">
                    <path d="M0.720125782,1.40128253 C0.581979099,1.40509656 0.445787427,1.36798014 0.328678716,1.29460161 C0.211571284,1.22121988 0.11877447,1.11484934 0.0619591465,0.988871082 C0.00514388723,0.862889626 -0.013153229,0.722922318 0.00936882396,0.586570662 C0.0318908769,0.450219006 0.094226436,0.323568814 0.188536385,0.222551992 C0.282846654,0.12153389 0.404920966,0.0506562419 0.539407202,0.0188326536 C0.673890239,-0.0129909028 0.814782257,-0.00433948074 0.944366566,0.0436988326 C1.07394767,0.0917374018 1.18643283,0.177017821 1.267673,0.288815684 C1.34891637,0.400614187 1.3952895,0.533938935 1.40095935,0.672021625 C1.40635723,0.858733226 1.33789023,1.04004055 1.21042092,1.17657459 C1.08295161,1.31311183 0.90676699,1.39385924 0.720125782,1.40128253 Z" id="path11_fill"></path>
                </g>
            </g>
        </g>
    </g>
</svg>