<?xml version="1.0" encoding="UTF-8"?>
<svg width="16px" height="16px" viewBox="0 0 16 16" version="1.1" xmlns="http://www.w3.org/2000/svg" xmlns:xlink="http://www.w3.org/1999/xlink">
    <title>file_type_php</title>
    <g id="file_type_php" stroke="none" stroke-width="1" fill="none" fill-rule="evenodd">
        <g transform="translate(1.000000, 3.000000)" fill="#A3789D" id="file_type_php.svg">
            <path d="M4.65821379,7.27302165 C4.62833018,6.8619837 4.36073272,6.50644181 3.97401942,6.36397057 C3.80253336,6.30097569 3.65467039,6.18548508 3.48493419,6.11549077 C3.29435619,6.02876255 3.09716341,5.95737525 2.89523214,5.90200813 C2.74603836,5.86532067 2.59013667,5.92845733 2.50851358,6.0586204 C2.4439171,6.16865816 2.46387501,6.30872639 2.55663467,6.39634294 C2.63800305,6.51095862 2.73162044,6.62032473 2.81911333,6.72706605 C2.96960109,6.90205182 3.12971307,7.07703759 3.27670112,7.25814786 C3.43228362,7.41651231 3.5185268,7.63023171 3.51643163,7.85222456 C3.46927016,8.34201264 3.23137501,8.79360488 2.85411048,9.10949733 C2.80606325,9.14807157 2.74597699,9.16851329 2.68437428,9.16724263 C2.44605538,9.14727841 2.22081785,9.04987009 2.04305143,8.88989019 C1.94695477,8.82466284 1.89587701,8.71080361 1.9110571,8.59565701 C1.9262372,8.48051042 2.00507776,8.38377868 2.11479559,8.34568444 C2.17527262,8.31537504 2.2337235,8.28118127 2.28978137,8.24331776 C2.43933269,8.14473377 2.49030738,7.949142 2.40789676,7.79010461 C2.37326084,7.70923774 2.32369093,7.63562494 2.26178364,7.57312225 C1.94943404,7.29926952 1.64233401,7.01579257 1.30811119,6.76643784 C0.533278226,6.21310413 0.0558100797,5.33430465 0.0132164745,4.38313163 C-0.0652347918,3.32258553 0.207143475,2.26565948 0.788403444,1.37512621 C0.990280377,1.00487325 1.30042388,0.70510857 1.67733116,0.515946075 C1.95710639,0.408394533 2.24499017,0.323258171 2.53826116,0.261341777 C3.33071485,0.0186277399 4.16507455,-0.0561666467 4.98806197,0.0417346336 C5.66724152,0.100095751 6.24922601,0.55096256 6.47544103,1.19401594 C6.62779119,1.63546965 6.67804746,2.10572475 6.62242908,2.56940411 C6.5028014,3.52639717 5.8160289,4.31587433 4.88482036,4.56686669 C4.57008028,4.70418254 4.20232066,4.58658934 4.02564022,4.29213903 C3.85065445,4.06028288 3.70716612,3.80830337 3.55142878,3.56419822 C3.52868063,3.52832614 3.51205698,3.48632955 3.49280855,3.44695775 C3.47356011,3.40758595 3.45343675,3.37171387 3.43331338,3.333217 C3.47478789,3.73410886 3.60542639,4.12064338 3.8156573,4.46450002 C3.92386988,4.65907676 4.11938508,4.78942023 4.34061461,4.81447156 C5.16945978,4.92811177 5.99544217,4.58762793 6.50343875,3.92291905 C7.0603708,3.18869257 7.26261246,2.24511183 7.05551886,1.34712849 C7.02227157,1.16339343 6.96540119,0.984033015 6.92515446,0.802047812 C6.90890575,0.750596787 6.91499783,0.694688088 6.94194635,0.647944043 C6.96889488,0.601199997 7.01422538,0.567912736 7.06689294,0.556192803 C7.12263032,0.53944855 7.17930766,0.526009593 7.23662914,0.515946075 C7.95680171,0.362587897 8.69609173,0.31951673 9.42920086,0.388206462 C10.2563363,0.449326365 11.0570658,0.706339538 11.7652609,1.13802049 C12.8210213,1.80861485 13.5928303,2.84454573 13.9333346,4.04803388 C13.9798387,4.22681757 14.0022021,4.41102172 13.9998292,4.59573935 C13.9998292,4.71910431 13.9210856,4.75147668 13.8248434,4.67360801 C13.7183172,4.58780418 13.6185708,4.49390806 13.5264927,4.39275585 C13.4389998,4.29913846 13.3716303,4.19152221 13.2876371,4.09265525 C13.2228924,4.01566151 13.166022,4.02703559 13.1353995,4.12327776 C13.1161511,4.181898 13.0986525,4.2396433 13.0811539,4.29826353 C12.902885,4.96568687 12.5616582,5.57839192 12.0881097,6.08136855 C12.0145158,6.15559274 11.966151,6.25109789 11.9498709,6.35434635 C11.9228374,6.61598331 11.9193236,6.87951762 11.9393718,7.14178233 C11.9936173,7.70348665 12.0776105,8.26256619 12.1432302,8.82339559 C12.1757151,8.95481969 12.1539576,9.09378701 12.0828588,9.20899344 C12.01176,9.32419988 11.8972995,9.4059562 11.7652609,9.43584579 C11.5463039,9.51552895 11.3176682,9.56555222 11.0854412,9.5845837 C10.7197209,9.60908171 10.3505009,9.59158313 9.98303082,9.59158313 C10.0669734,9.22042794 9.92723702,8.83435913 9.62518492,8.60291352 C9.69955387,8.30981235 9.78617183,8.03158498 9.83779263,7.7472331 C9.8920479,7.51271606 9.83055153,7.2664052 9.67243108,7.08491195 C9.54795292,6.90948513 9.31207339,6.85464689 9.12297576,6.95717234 C8.59166655,7.25120798 7.95646428,7.29134968 7.39236647,7.06653844 C7.28497778,7.01127199 7.15999651,7.00106353 7.04506275,7.03817072 C6.93012898,7.07527791 6.83471295,7.1566432 6.77991627,7.26427237 C6.62258729,7.51364489 6.54845172,7.80651102 6.56818349,8.10070436 C6.59093164,8.46817448 6.65567637,8.83126995 6.7081721,9.19699022 C6.73616983,9.40172357 6.7081721,9.4542193 6.50168889,9.50671503 C6.03487741,9.61153222 5.5543137,9.64106902 5.07817964,9.59420792 C5.05531238,9.59048865 5.03278269,9.58492938 5.01081012,9.57758427 C5.09353024,9.18410467 4.90583718,8.78338355 4.55059754,8.59503916 C4.72695839,8.17849879 4.76528557,7.71642627 4.65996365,7.27652137 L4.65996365,7.27652137 L4.65996365,7.27652137 L4.65821379,7.27302165 Z M1.826944,5.76551923 C1.89909254,5.69729083 1.94959799,5.60936268 1.97218219,5.51266479 C2.00139027,5.25750019 1.86829157,5.01121518 1.63883429,4.89583994 C1.54376765,4.84599869 1.42686942,4.86850705 1.3571072,4.95008553 C1.16987243,5.15773532 0.984095865,5.36567674 0.799777519,5.57390981 C0.768209309,5.61034321 0.740909304,5.6502658 0.718409135,5.69290013 C0.677764435,5.7425279 0.669114733,5.81104144 0.696149896,5.86921365 C0.723185059,5.92738586 0.781133016,5.96494857 0.84527382,5.96587794 C0.940641065,5.98950102 1.03950803,5.99387566 1.13837499,6.00787452 C1.38810266,6.00735189 1.63059424,5.92395694 1.82781893,5.7707688 L1.82781893,5.7707688 L1.826944,5.76551923 Z M1.84794229,3.4907042 C1.84230505,3.32443795 1.70632698,3.19232289 1.53996733,3.19147853 C1.36852993,3.19193945 1.2291299,3.32978194 1.2267428,3.50120334 C1.23704443,3.66792127 1.37735597,3.79663681 1.54434198,3.79255465 C1.7116778,3.79352537 1.84824823,3.65891154 1.84969215,3.49157913 L1.84969215,3.49157913 L1.84794229,3.4907042 Z"></path>
        </g>
    </g>
</svg>