<?xml version="1.0" encoding="UTF-8"?>
<svg width="16px" height="16px" viewBox="0 0 16 16" version="1.1" xmlns="http://www.w3.org/2000/svg" xmlns:xlink="http://www.w3.org/1999/xlink">
    <title>file_type_sass</title>
    <g id="file_type_sass" stroke="none" stroke-width="1" fill="none" fill-rule="evenodd">
        <g id="file_type_scss" transform="translate(2.000000, 1.000000)" fill="#92BD79">
            <path d="M11.9575517,1.71324842 C11.5315517,0.0682484161 8.74055166,-0.472751584 6.10155166,0.444248416 C4.45423978,0.984508726 2.92809141,1.84082301 1.60855166,2.96524842 C0.155551665,4.29524842 -0.0764483352,5.45224842 0.0185516648,5.93624842 C0.356551665,7.64224842 2.74655166,8.75724842 3.73155166,9.58524842 L3.73155166,9.58524842 C3.44155166,9.72424842 1.32155166,10.7742484 0.824551665,11.8482484 C0.604275757,12.1816211 0.531439949,12.5911582 0.623263957,12.9800376 C0.715087965,13.368917 0.963420664,13.7026183 1.30955166,13.9022484 C2.54081276,14.1955292 3.82394439,13.6866736 4.51955166,12.6292484 C5.07607632,11.7903808 5.19515612,10.7350361 4.83955166,9.79324842 C5.31322973,9.67582809 5.80473791,9.64835248 6.28855166,9.71224842 C7.94955166,9.90224842 8.27555166,10.9122484 8.21255166,11.3412484 C8.15174347,11.6492819 7.95918672,11.9152806 7.68555166,12.0692484 C7.56955166,12.1402484 7.53355166,12.1642484 7.54355166,12.2162484 C7.55755166,12.2922484 7.61155166,12.2892484 7.71055166,12.2732484 C8.21509418,12.1191481 8.57278428,11.6704458 8.61055166,11.1442484 C8.65055166,10.1492484 7.67555166,9.03624842 5.94955166,9.06524842 C5.44832985,9.05161395 4.94820294,9.11915303 4.46855166,9.26524842 L4.39555166,9.18624842 C3.33155166,8.07324842 1.35755166,7.28524842 1.44155166,5.78824842 C1.47155166,5.24424842 1.66555166,3.81124842 5.23155166,2.07324842 C8.15255166,0.649248416 10.4915517,1.04124842 10.8955517,1.90924842 C11.4725517,3.15024842 9.64555166,5.45624842 6.61155166,5.78824842 C5.93399521,5.92407908 5.23119598,5.7498465 4.69555166,5.31324842 C4.53655166,5.14124842 4.51255166,5.13324842 4.45255166,5.16624842 C4.35255166,5.21924842 4.41755166,5.36624842 4.45255166,5.46124842 C4.6910652,5.87862563 5.08751628,6.18245132 5.55255166,6.30424842 C6.74507165,6.55772581 7.98673154,6.43761023 9.10855166,5.96024842 C10.9435517,5.26524842 12.3795517,3.33024842 11.9575517,1.71324842 Z M4.13755166,10.0952484 C4.27173779,10.5478874 4.26476108,11.0306758 4.11755166,11.4792484 C4.10155166,11.5259151 4.08421833,11.5722484 4.06555166,11.6182484 C4.046885,11.6642484 4.02655166,11.7092484 4.00455166,11.7532484 C3.89048888,11.9816813 3.74322469,12.1919624 3.56755166,12.3772484 C3.18191361,12.8827179 2.54208214,13.1244493 1.91855166,13.0002484 C1.56255166,12.8002484 1.74055166,11.9702484 2.37855166,11.3112484 C2.87042901,10.8355353 3.43522975,10.441559 4.05155166,10.1442484 L4.05155166,10.1442484 L4.13755166,10.0952484 Z" id="file_type_scss.svg"></path>
        </g>
    </g>
</svg>