<?xml version="1.0" encoding="UTF-8"?>
<svg width="16px" height="16px" viewBox="0 0 16 16" version="1.1" xmlns="http://www.w3.org/2000/svg" xmlns:xlink="http://www.w3.org/1999/xlink">
    <title>file_type_swift</title>
    <g id="file_type_swift" stroke="none" stroke-width="1" fill="none" fill-rule="evenodd">
        <g transform="translate(1.000000, 2.000000)" fill="#CC793D" id="file_type_swift.svg">
            <path d="M8.72,0 C8.72,0 11.832,1.779 12.646,4.606 C13.38,7.159 12.792,8.377 12.792,8.377 C13.1671412,8.78542323 13.462859,9.26019955 13.664,9.777 C14.0736882,10.4516595 14.12783,11.2839493 13.809,12.006 C13.809,12.006 13.761,10.965 12.209,10.749 C10.787,10.549 10.27,11.933 7.556,11.866 C4.49977431,11.8090221 1.67013375,10.2421592 -2.22044605e-16,7.682 C1.327,8.406 3.065,9.529 5.23,9.358 C7.395,9.187 7.847,8.52 7.847,8.52 C5.41348347,6.59404726 3.25953333,4.33913071 1.447,1.82 C3.148,3.244 7.364,6.078 7.266,6.006 C5.72406112,4.49939004 4.31329225,2.86414266 3.049,1.118 C3.049,1.118 9.374,6.318 9.883,6.285 C10.092,5.854 11.174,3.623 8.72,0 L8.72,0 L8.72,0 Z"></path>
        </g>
    </g>
</svg>