<?xml version="1.0" encoding="UTF-8"?>
<svg width="16px" height="16px" viewBox="0 0 16 16" version="1.1" xmlns="http://www.w3.org/2000/svg" xmlns:xlink="http://www.w3.org/1999/xlink">
    <title>file_type_csv</title>
    <g id="file_type_csv" stroke="none" stroke-width="1" fill="none" fill-rule="evenodd">
        <path d="M13.482,15 L2.518,15 C1.67986033,14.9994484 1.00055159,14.3201397 1,13.482 L1,2.518 C1.00055159,1.67986033 1.67986033,1.00055159 2.518,1 L13.482,1 C14.3201397,1.00055159 14.9994484,1.67986033 15,2.518 L15,13.482 C14.9994484,14.3201397 14.3201397,14.9994484 13.482,15 Z M2.77490071,2 C2.34715259,2.00052517 2.00052517,2.34715259 2,2.77490071 L2,13.2250993 C2.00052517,13.6528474 2.34715259,13.9994748 2.77490071,14 L13.2250993,14 C13.6528474,13.9994748 13.9994748,13.6528474 14,13.2250993 L14,2.77490071 C13.9994748,2.34715259 13.6528474,2.00052517 13.2250993,2 L2.77490071,2 Z" id="Combined-Shape" fill="#55B4D4"></path>
        <path d="M6.796875,12.984375 C7.83854167,12.5052083 8.6875,11.765625 9.34375,10.765625 C10,9.765625 10.328125,8.70833333 10.328125,7.59375 C10.328125,5.19791667 9.58854167,4 8.109375,4 C7.50520833,4 7.00260417,4.1875 6.6015625,4.5625 C6.20052083,4.9375 6,5.421875 6,6.015625 C6.01041667,6.58854167 6.203125,7.05729167 6.578125,7.421875 C6.953125,7.78645833 7.40104167,7.96875 7.921875,7.96875 C8.21354167,7.96875 8.47916667,7.90625 8.71875,7.78125 C8.76041667,8.07291667 8.78125,8.31770833 8.78125,8.515625 C8.78125,9.97395833 8.00520833,11.3072917 6.453125,12.515625 L6.453125,12.515625 L6.796875,12.984375 Z" id="," fill="#55B4D4" fill-rule="nonzero"></path>
    </g>
</svg>