<?xml version="1.0" encoding="UTF-8"?>
<svg width="16px" height="16px" viewBox="0 0 16 16" version="1.1" xmlns="http://www.w3.org/2000/svg" xmlns:xlink="http://www.w3.org/1999/xlink">
    <title>file_type_python</title>
    <g id="file_type_python" stroke="none" stroke-width="1" fill="none" fill-rule="evenodd">
        <g transform="translate(1.000000, 1.000000)" fill="#E6B045" id="file_type_python.svg">
            <path d="M7.20082143,0.5 C3.77375,0.5 3.98782143,1.99367857 3.98782143,1.99367857 L3.98782143,3.54135714 L7.26253571,3.54135714 L7.26253571,4.00614286 L2.69278571,4.00614286 C2.69278571,4.00614286 0.5,3.75639286 0.5,7.23264286 C0.5,10.7088929 2.41410714,10.5854643 2.41410714,10.5854643 L3.55582143,10.5854643 L3.55582143,8.97221429 C3.5256438,8.4600172 3.71276704,7.9588261 4.07123416,7.59173229 C4.42970127,7.22463847 4.92630164,7.02565178 5.43907143,7.04364286 L8.68389286,7.04364286 C9.16439201,7.06495792 9.63239007,6.88704335 9.97738114,6.55190916 C10.3223722,6.21677497 10.5137744,5.75412933 10.5063929,5.27321429 L10.5063929,2.30128571 C10.5063929,2.30128571 10.7831429,0.5 7.20082143,0.5 L7.20082143,0.5 Z M5.39760714,1.54045716 C5.63694743,1.53929295 5.8533728,1.68256655 5.94577714,1.90335284 C6.03818148,2.12413913 5.98832541,2.37885787 5.8194999,2.54851368 C5.65067438,2.71816948 5.39620329,2.76927458 5.17496633,2.67795452 C4.95372937,2.58663446 4.80938969,2.37091459 4.80938969,2.13157143 C4.80888061,1.97514463 4.87059604,1.82493514 4.98093542,1.7140531 C5.0912748,1.60317107 5.24117971,1.54071947 5.39760714,1.54045716 L5.39760714,1.54045716 Z M7.30014286,14 C10.7272143,14 10.5131429,12.5063214 10.5131429,12.5063214 L10.5131429,10.9586429 L7.23842857,10.9586429 L7.23842857,10.4938571 L11.8081786,10.4938571 C11.8081786,10.4938571 14,10.7436071 14,7.26735714 C14,3.79110714 12.0858929,3.91453571 12.0858929,3.91453571 L10.9451429,3.91453571 L10.9451429,5.52778571 C10.9753205,6.0399828 10.7881972,6.5411739 10.4297301,6.90826771 C10.071263,7.27536153 9.57466265,7.47434822 9.06189286,7.45635714 L5.81707143,7.45635714 C5.33657228,7.43504208 4.86857422,7.61295665 4.52358314,7.94809084 C4.17859207,8.28322503 3.9871899,8.74587067 3.99457143,9.22678571 L3.99457143,12.2035357 C3.99457143,12.2035357 3.71782143,14 7.30014286,14 L7.30014286,14 Z M9.10335714,12.9595428 C8.86401685,12.9607071 8.64759148,12.8174335 8.55518714,12.5966472 C8.46278281,12.3758609 8.51263887,12.1211421 8.68146439,11.9514863 C8.8502899,11.7818305 9.10476099,11.7307254 9.32599795,11.8220455 C9.54723492,11.9133655 9.69157459,12.1290854 9.69157459,12.3684286 C9.69208367,12.5248554 9.63036825,12.6750649 9.52002887,12.7859469 C9.40968948,12.8968289 9.25978457,12.9592805 9.10335714,12.9595428 L9.10335714,12.9595428 Z"></path>
        </g>
    </g>
</svg>