<?xml version="1.0" encoding="UTF-8"?>
<svg width="16px" height="16px" viewBox="0 0 16 16" version="1.1" xmlns="http://www.w3.org/2000/svg" xmlns:xlink="http://www.w3.org/1999/xlink">
    <title>file_type_wasm</title>
    <g id="file_type_wasm" stroke="none" stroke-width="1" fill="none" fill-rule="evenodd">
        <path d="M 13.482 15 L 2.518 15 C 1.68 14.999 1.001 14.32 1 13.482 L 1 2.518 C 1.001 1.68 1.68 1.001 2.518 1 L 13.482 1 C 14.32 1.001 14.999 1.68 15 2.518 L 15 13.482 C 14.999 14.32 14.32 14.999 13.482 15 Z M 2.775 2 C 2.347 2.001 2.001 2.347 2 2.775 L 2 13.225 C 2.001 13.653 2.347 13.999 2.775 14 L 13.225 14 C 13.653 13.999 13.999 13.653 14 13.225 L 14 2.775 C 13.999 2.347 13.653 2.001 13.225 2 L 2.775 2 Z" id="Combined-Shape" fill="#654ff0"/>
        <path d="M 6.558 13.089 L 5.732 9.005 H 5.718 L 4.826 13.089 H 3.688 L 2.4 7.089 h 1.123 l 0.768 4.084 h 0.014 L 5.231 7.089 H 6.281 L 7.112 11.223 H 7.126 L 8.003 7.089 h 1.102 l -1.431 6 z" fill="#654ff0"/>
        <path d="M 12.575 13.089 L 12.192 11.754 H 10.172 L 9.878 13.089 H 8.755 l 1.452 -6 h 1.772 l 1.765 6 z M 10.883 8.568 L 10.393 10.769 h 1.525 L 11.355 8.568 Z" fill="#654ff0"/>
    </g>
</svg>
