<?xml version="1.0" encoding="UTF-8"?>
<svg width="16px" height="16px" viewBox="0 0 16 16" version="1.1" xmlns="http://www.w3.org/2000/svg" xmlns:xlink="http://www.w3.org/1999/xlink">
    <title>file_type_js</title>
    <g id="file_type_js" stroke="none" stroke-width="1" fill="none" fill-rule="evenodd">
        <path d="M13.482,15 L2.518,15 C1.67986033,14.9994484 1.00055159,14.3201397 1,13.482 L1,2.518 C1.00055159,1.67986033 1.67986033,1.00055159 2.518,1 L13.482,1 C14.3201397,1.00055159 14.9994484,1.67986033 15,2.518 L15,13.482 C14.9994484,14.3201397 14.3201397,14.9994484 13.482,15 Z M2.77490071,2 C2.34715259,2.00052517 2.00052517,2.34715259 2,2.77490071 L2,13.2250993 C2.00052517,13.6528474 2.34715259,13.9994748 2.77490071,14 L13.2250993,14 C13.6528474,13.9994748 13.9994748,13.6528474 14,13.2250993 L14,2.77490071 C13.9994748,2.34715259 13.6528474,2.00052517 13.2250993,2 L2.77490071,2 Z" id="Combined-Shape" fill="#E6B045"></path>
        <path d="M6.80924367,9.3501247 L6.80924367,11.5352494 L6.78210507,11.6381889 C6.76019267,11.7470668 6.70758907,11.8474033 6.63050327,11.9273553 C6.50497954,12.0391165 6.33816434,12.0927963 6.17101881,12.0752138 C5.84520415,12.0728144 5.55490106,11.8689687 5.44202003,11.5633238 C5.42159333,11.5254642 5.39745556,11.4897277 5.36996239,11.4566411 L4.86649469,11.7542298 L4.378,12.0508827 L4.41543254,12.1248119 C4.63331167,12.5631995 5.01637174,12.8971148 5.48038839,13.053139 C5.99362409,13.2141823 6.54570434,13.2010219 7.05068357,13.0157065 C7.607424,12.7845688 7.98046537,12.2525382 8.00802086,11.6503545 C8.01550737,11.5811043 8.02018643,10.8081222 8.02018643,9.35573958 L8.02018643,7.165 L6.81392274,7.165 L6.80924367,9.3501247 Z" id="file_type_js.svg-path" fill="#E6B045"></path>
        <path d="M10.9299345,7.09915584 C10.5045693,7.11985226 10.1009366,7.29325994 9.79311381,7.58755398 C9.49764848,7.87961414 9.33854313,8.28241248 9.35466548,8.69754977 C9.33183811,9.34153146 9.68429421,9.94038216 10.258387,10.2330439 C10.5002376,10.368782 10.7504939,10.4889668 11.0076342,10.5928676 C11.3074475,10.6893391 11.5857497,10.8429394 11.8271811,11.0451909 C11.976277,11.2123759 12.0125595,11.4518407 11.9196807,11.6556885 C11.8902303,11.7086597 11.8534884,11.7572336 11.8105312,11.799988 C11.6310188,11.957864 11.3960231,12.0377492 11.1574836,12.0219872 C10.700645,12.0334078 10.2732902,11.797089 10.0400879,11.4040895 C10.0169848,11.3673511 9.99034121,11.3329623 9.96053818,11.3014149 C9.94943822,11.3014149 9.01981675,11.8379129 9.00039182,11.8564128 C8.98096689,11.8749127 9.00039182,11.8934126 9.04571665,11.9711123 C9.41406179,12.5945835 10.0598124,13.0028246 10.7810101,13.0681582 C11.0423737,13.0956073 11.3058935,13.0956073 11.5672571,13.0681582 C11.9977688,13.0289746 12.403427,12.8492238 12.7216527,12.5566351 C13.030482,12.2542944 13.1962689,11.8349512 13.177676,11.4031645 C13.1852097,11.1342769 13.1291113,10.8674132 13.0139516,10.6243175 C12.9423166,10.4723366 12.8439347,10.3344765 12.7235027,10.217319 C12.3579763,9.88824409 11.9306688,9.63512969 11.4664325,9.47269683 C11.1803231,9.38060008 10.9146335,9.23425093 10.6838854,9.04164846 C10.5789498,8.93126358 10.5272837,8.78065525 10.542361,8.62910003 C10.5431419,8.51505046 10.5867175,8.40545138 10.6644605,8.3220012 C10.7821844,8.19345922 10.9534575,8.12769034 11.1269587,8.14440187 C11.3316688,8.13171371 11.5312807,8.21149056 11.6708567,8.36177605 C11.7300747,8.42086825 11.7833623,8.48561881 11.8299561,8.55510031 C11.8449885,8.59308069 11.8715059,8.62541892 11.9058058,8.64759996 C11.9372557,8.63372501 12.8252523,8.06022719 12.8252523,8.05190222 C12.8252523,8.04357725 12.7799275,7.97605251 12.7253527,7.89280282 C12.5957674,7.70372381 12.4357316,7.53743661 12.2517545,7.40070469 C11.9716988,7.21668189 11.6468002,7.11243292 11.311958,7.09915584 C11.1849951,7.08527475 11.0568974,7.08527475 10.9299345,7.09915584 Z" id="file_type_js.svg-path" fill="#E6B045"></path>
    </g>
</svg>