<?xml version="1.0" encoding="UTF-8"?>
<svg width="16px" height="16px" viewBox="0 0 16 16" version="1.1" xmlns="http://www.w3.org/2000/svg" xmlns:xlink="http://www.w3.org/1999/xlink">
    <title>file_type_gql</title>
    <g id="file_type_gql" stroke="none" stroke-width="1" fill="none" fill-rule="evenodd">
        <path d="M8.25,1.00714286 C8.93928571,1.00714286 9.49642857,1.56428571 9.49642857,2.25357143 C9.49642857,2.37742746 9.47843977,2.49701691 9.44492787,2.60987407 L12.3213477,4.26958302 C12.4021824,4.18408812 12.4965527,4.10858916 12.6035714,4.04642857 C13.2,3.70357143 13.9607143,3.90714286 14.3071429,4.50357143 C14.65,5.1 14.4464286,5.86071429 13.85,6.20714286 C13.7435508,6.26833521 13.6317546,6.31212147 13.5179618,6.33937473 L13.5184057,9.66159402 C13.630813,9.68891121 13.7412317,9.7323847 13.8464286,9.79285714 C14.4464286,10.1392857 14.65,10.9 14.3035714,11.4964286 C13.9607143,12.0928571 13.1964286,12.2964286 12.6,11.9535714 C12.4811373,11.8852432 12.3778776,11.8001771 12.2914365,11.7030375 L9.43330665,13.3531244 C9.47426381,13.4767205 9.49642857,13.608946 9.49642857,13.7464286 C9.49642857,14.4321429 8.93928571,14.9928571 8.25,14.9928571 C7.56071429,14.9928571 7.00357143,14.4357143 7.00357143,13.7464286 C7.00357143,13.6240659 7.02112907,13.5058675 7.05386674,13.394211 L4.17934243,11.7334541 C4.09914922,11.8177005 4.00574975,11.8921479 3.9,11.9535714 C3.3,12.2964286 2.53928571,12.0928571 2.19642857,11.4964286 C1.85357143,10.9 2.05714286,10.1392857 2.65357143,9.79285714 C2.75876828,9.7323847 2.86907592,9.68891121 2.98131976,9.66159402 L2.98203824,6.33937473 C2.86824536,6.31212147 2.75644919,6.26833521 2.65,6.20714286 C2.05357143,5.86428571 1.85,5.1 2.19285714,4.50357143 C2.53571429,3.90714286 3.3,3.70357143 3.89642857,4.04642857 C4.00260132,4.10809777 4.09632479,4.18289529 4.17673269,4.26755735 L7.05420143,2.60692844 C7.02124874,2.49493677 7.00357143,2.37635045 7.00357143,2.25357143 C7.00357143,1.56428571 7.56071429,1.00714286 8.25,1.00714286 Z M12.0126171,11.1712225 L4.48713505,11.1709283 L4.47426361,11.2190146 L4.47426361,11.2190146 L7.3523031,12.8810273 C7.57888872,12.6460164 7.89712831,12.5 8.25,12.5 C8.61545696,12.5 8.94376745,12.6566176 9.17158829,12.9065095 L12.0356882,11.2531818 L12.0126171,11.1712225 L12.0126171,11.1712225 Z M8.25,3.5 C8.129734,3.5 8.01349083,3.48303891 7.90352793,3.45137419 L4.13803599,9.97162052 C4.2218673,10.0515982 4.29596505,10.1446733 4.35714286,10.25 C4.4176153,10.3551969 4.46108879,10.4655045 4.48840598,10.5777483 L12.0117504,10.5773799 C12.039077,10.4651946 12.0825,10.3549963 12.1428571,10.25 C12.2038906,10.1438273 12.2782787,10.0501038 12.3626972,9.96969588 L8.59825067,3.45086059 C8.4877629,3.48285547 8.37091462,3.5 8.25,3.5 Z M7.35323607,3.11993929 L4.47155246,4.78397566 C4.56130159,5.09740035 4.52880952,5.44515873 4.35357143,5.75 C4.1781475,6.05516454 3.89239825,6.25748343 3.57525561,6.33638654 L3.57550656,9.66311362 L3.62358235,9.6760248 L3.62358235,9.6760248 L7.38847528,3.15498984 L7.35323607,3.11993929 L7.35323607,3.11993929 Z M9.11152472,3.15498984 L12.8777155,9.67525446 L12.9244984,9.66279091 L12.9244984,9.66279091 L12.9247444,6.33638654 C12.6076017,6.25748343 12.3218525,6.05516454 12.1464286,5.75 C11.9715621,5.44580527 11.9388369,5.09887527 12.0278781,4.78597034 L9.14489489,3.12186952 L9.11152472,3.15498984 L9.11152472,3.15498984 Z" id="Shape" fill="#E535AB" fill-rule="nonzero"></path>
    </g>
</svg>