<?xml version="1.0" encoding="UTF-8"?>
<svg width="16px" height="16px" viewBox="0 0 16 16" version="1.1" xmlns="http://www.w3.org/2000/svg" xmlns:xlink="http://www.w3.org/1999/xlink">
    <title>file_type_rust</title>
    <g id="file_type_rust" stroke="none" stroke-width="1" fill="none" fill-rule="evenodd">
        <g id="file_type_ruby" transform="translate(0.000000, 1.000000)"></g>
        <g transform="translate(1.000000, 1.000000)" fill="#C3514D" id="file_type_rust.svg">
            <path d="M13.9,6.831 L13.313,6.468 C13.313,6.411 13.303,6.354 13.296,6.297 L13.796,5.826 C13.8483284,5.77881507 13.8719673,5.70757598 13.8582277,5.63846808 C13.8444882,5.56936019 13.7953975,5.51258068 13.729,5.489 L13.084,5.248 C13.068,5.192 13.051,5.137 13.034,5.081 L13.434,4.522 C13.4771067,4.46433291 13.4858911,4.38794684 13.457,4.322 C13.4314698,4.2585249 13.3752645,4.21250447 13.308,4.2 L12.628,4.089 C12.602,4.037 12.574,3.989 12.546,3.936 L12.832,3.308 C12.8624443,3.24433301 12.8570815,3.16933391 12.8178881,3.11064642 C12.7786947,3.05195893 12.711473,3.01827116 12.641,3.022 L11.951,3.046 C11.915,3.002 11.879,2.957 11.842,2.913 L12,2.246 C12.0184796,2.17746706 11.9992506,2.10427381 11.9494727,2.05367317 C11.8996949,2.00307253 11.8268267,1.98264629 11.758,2 L11.086,2.159 C11.042,2.124 11,2.088 10.953,2.052 L10.977,1.362 C10.979976,1.29211697 10.9462271,1.22575689 10.888,1.187 C10.8290239,1.14619395 10.7527135,1.14008912 10.688,1.171 L10.06,1.457 L9.907,1.375 L9.8,0.695 C9.78889508,0.625625762 9.74220313,0.567165928 9.677,0.541 C9.61105316,0.51210891 9.53466709,0.520893308 9.477,0.564 L8.918,0.964 L8.752,0.914 L8.517,0.27 C8.49411512,0.203138903 8.43764407,0.153318319 8.36845186,0.13894605 C8.29925965,0.124573781 8.22761907,0.147783638 8.18,0.2 L7.709,0.705 L7.538,0.691 L7.174,0.1 C7.13797247,0.0392826999 7.07260151,0.00205880658 7.002,0.00205880658 C6.93139849,0.00205880658 6.86602753,0.0392826999 6.83,0.1 L6.467,0.687 L6.3,0.708 L5.825,0.2 C5.77781507,0.147671627 5.70657598,0.124032741 5.63746808,0.137772293 C5.56836019,0.151511844 5.51158068,0.2006025 5.488,0.267 L5.246,0.912 L5.08,0.962 L4.521,0.562 C4.46456664,0.519618493 4.38997384,0.51011759 4.32471837,0.53699956 C4.2594629,0.56388153 4.21320634,0.623166288 4.203,0.693 L4.092,1.373 C4.042,1.4 3.99,1.429 3.94,1.457 L3.312,1.171 C3.24728652,1.14008912 3.17097613,1.14619395 3.112,1.187 C3.05377289,1.22575689 3.02002405,1.29211697 3.023,1.362 L3.047,2.052 C3.003,2.088 2.958,2.124 2.914,2.161 L2.245,2 C2.1757464,1.98130419 2.10178401,2.0011287 2.05116467,2.05195465 C2.00054533,2.1027806 1.98102226,2.17682312 2,2.246 L2.161,2.919 C2.124,2.963 2.088,3.006 2.052,3.052 L1.362,3.028 C1.29152703,3.02427116 1.22430531,3.05795893 1.18511191,3.11664642 C1.14591852,3.17533391 1.14055565,3.25033301 1.171,3.314 L1.457,3.94 C1.429,3.99 1.402,4.04 1.375,4.093 L0.695,4.2 C0.625166288,4.21020634 0.56588153,4.2564629 0.53899956,4.32171837 C0.51211759,4.38697384 0.521618493,4.46156664 0.564,4.518 L0.964,5.077 C0.947,5.132 0.93,5.188 0.914,5.244 L0.27,5.489 C0.2036025,5.51258068 0.154511844,5.56936019 0.140772293,5.63846808 C0.127032741,5.70757598 0.150671627,5.77881507 0.203,5.826 L0.708,6.3 C0.7,6.354 0.7,6.411 0.691,6.468 L0.1,6.831 C0.0392826999,6.86702753 0.00205880658,6.93239849 0.00205880658,7.003 C0.00205880658,7.07360151 0.0392826999,7.13897247 0.1,7.175 L0.691,7.538 C0.7,7.6 0.7,7.653 0.708,7.709 L0.2,8.18 C0.147671627,8.22718493 0.124032741,8.29842402 0.137772293,8.36753192 C0.151511844,8.43663981 0.2006025,8.49341932 0.267,8.517 L0.915,8.759 C0.931,8.815 0.948,8.871 0.965,8.926 L0.565,9.485 C0.523758018,9.54150449 0.515036156,9.61545072 0.542,9.68 C0.568445096,9.74481527 0.626853327,9.79108672 0.696,9.802 L1.376,9.913 C1.402,9.965 1.43,10.013 1.458,10.066 L1.172,10.693 C1.14155565,10.756667 1.14691852,10.8316661 1.18611191,10.8903536 C1.22530531,10.9490411 1.29252703,10.9827288 1.363,10.979 L2.053,10.955 C2.089,11 2.125,11.044 2.162,11.088 L2,11.759 C1.98324524,11.8274645 2.00376594,11.8996936 2.05401472,11.949122 C2.1042635,11.9985504 2.17682058,12.0178794 2.245,12 L2.918,11.842 L3.051,11.951 L3.027,12.642 C3.02364193,12.7122983 3.05747977,12.7791877 3.11610115,12.818132 C3.17472252,12.8570762 3.24949857,12.8623429 3.313,12.832 L3.941,12.546 C3.991,12.574 4.041,12.601 4.094,12.628 L4.2,13.311 C4.21091328,13.3801467 4.25718473,13.4385549 4.322,13.465 C4.38792801,13.4931376 4.46376463,13.4847955 4.522,13.443 L5.081,13.043 L5.248,13.093 L5.49,13.738 C5.51358068,13.8043975 5.57036019,13.8534882 5.63946808,13.8672277 C5.70857598,13.8809673 5.77981507,13.8573284 5.827,13.805 L6.3,13.3 C6.357,13.307 6.414,13.312 6.472,13.317 L6.832,13.9 C6.86814433,13.9602424 6.93324645,13.9971032 7.0035,13.9971032 C7.07375355,13.9971032 7.13885567,13.9602424 7.175,13.9 L7.538,13.313 L7.709,13.3 L8.18,13.8 C8.22718493,13.8523284 8.29842402,13.8759673 8.36753192,13.8622277 C8.43663981,13.8484882 8.49341932,13.7993975 8.517,13.733 L8.759,13.088 L8.926,13.038 L9.485,13.438 C9.54285588,13.4807752 9.61922946,13.4891763 9.685,13.46 C9.74981527,13.4335549 9.79608672,13.3751467 9.807,13.306 L9.918,12.626 L10.071,12.544 L10.699,12.83 C10.7624113,12.8598602 10.8368267,12.8543469 10.8951453,12.8154679 C10.9534638,12.7765889 10.9871743,12.7100182 10.984,12.64 L10.96,11.949 L11.093,11.84 L11.76,12 C11.8281094,12.0163362 11.8998017,11.9958526 11.949,11.946 C11.9970874,11.8966192 12.0163589,11.825957 12,11.759 L11.842,11.086 C11.879,11.042 11.915,10.999 11.951,10.953 L12.641,10.977 C12.710883,10.979976 12.7772431,10.9462271 12.816,10.888 C12.8564812,10.8288391 12.8622038,10.7525373 12.831,10.688 L12.545,10.061 C12.572,10.011 12.6,9.961 12.627,9.908 L13.307,9.797 C13.3764806,9.78660398 13.4354117,9.74051477 13.4622434,9.67558637 C13.489075,9.61065797 13.4798721,9.53641243 13.438,9.48 L13.038,8.921 C13.055,8.866 13.072,8.81 13.088,8.754 L13.733,8.513 C13.7986759,8.48868394 13.8468487,8.43178687 13.86,8.363 C13.8726193,8.29575264 13.849986,8.22672101 13.8,8.18 L13.3,7.709 C13.306,7.652 13.311,7.595 13.317,7.538 L13.9,7.175 C13.9607173,7.13897247 13.9979412,7.07360151 13.9979412,7.003 C13.9979412,6.93239849 13.9607173,6.86702753 13.9,6.831 L13.9,6.831 Z M9.968,11.7 C9.80327326,11.6650253 9.67588094,11.5341898 9.64531084,11.3685891 C9.61474074,11.2029884 9.6870238,11.0352926 9.82840633,10.9438098 C9.96978886,10.852327 10.1523786,10.8551051 10.2909125,10.9508469 C10.4294463,11.0465887 10.4965941,11.216406 10.461,11.381 C10.4120811,11.6046261 10.1920355,11.7470086 9.968,11.7 L9.968,11.7 Z M9.768,10.351 C9.66986171,10.3299538 9.56738233,10.3488026 9.48315526,10.4033908 C9.39892819,10.4579789 9.3398696,10.543824 9.319,10.642 L9.11,11.615 C7.75384413,12.2290519 6.1978021,12.223578 4.846,11.6 L4.637,10.627 C4.59304558,10.4228779 4.39227385,10.2927564 4.188,10.336 L3.329,10.52 C3.16954641,10.3557232 3.02121776,10.1810028 2.885,9.997 L7.065,9.997 C7.112,9.997 7.144,9.988 7.144,9.945 L7.144,8.463 C7.144,8.42 7.112,8.411 7.065,8.411 L5.842,8.411 L5.842,7.474 L7.164,7.474 C7.56949375,7.47771601 7.91309174,7.77355684 7.977,8.174 C8.029,8.38 8.145,9.051 8.224,9.266 C8.32962536,9.61783185 8.60880565,9.89058987 8.963,9.988 L11.046,9.988 C11.0711561,9.98785485 11.0962515,9.98551261 11.121,9.981 C10.9767842,10.177368 10.8187146,10.363175 10.648,10.537 L9.769,10.348 L9.769,10.348 L9.768,10.351 Z M3.988,11.68 C3.82349368,11.7154887 3.65381054,11.6483654 3.55810092,11.5099406 C3.46239131,11.3715157 3.45951169,11.1890613 3.55080529,11.047685 C3.64209888,10.9063087 3.80957927,10.8338641 3.97512359,10.8641437 C4.14066791,10.8944233 4.27166106,11.0214614 4.307,11.186 C4.331029,11.2941216 4.31084031,11.4073624 4.25092728,11.5005188 C4.19101424,11.5936751 4.09634865,11.6590164 3.988,11.682 L3.988,11.68 Z M2.4,5.253 C2.49238319,5.46261822 2.39745126,5.70744626 2.18790445,5.7999913 C1.97835764,5.89253634 1.73345636,5.79779351 1.64074953,5.58831822 C1.5480427,5.37884294 1.64259637,5.13386857 1.852,5.041 C2.06187541,4.94852596 2.30700234,5.04335609 2.4,5.253 Z M1.916,6.408 L2.811,6.008 C2.99969553,5.92171974 3.08393731,5.69974935 3,5.51 L2.819,5.093 L3.543,5.093 L3.543,8.36 L2.081,8.36 C1.94972937,7.90486684 1.88241748,7.43368361 1.881,6.96 C1.88110983,6.77628748 1.89078962,6.5927054 1.91,6.41 L1.91,6.41 L1.916,6.408 Z M5.843,6.091 L5.843,5.12899957 L7.569,5.12899957 C7.8721566,5.12865127 8.13450877,5.3397823 8.199,5.636 C8.10767529,5.96377894 7.77647718,6.16337515 7.444,6.091 L5.844,6.091 L5.843,6.091 Z M12.115,6.957 C12.115,7.085 12.1103333,7.21133333 12.101,7.336 L11.575,7.336 C11.5528666,7.3349567 11.5314855,7.34416271 11.5170331,7.36095873 C11.5025807,7.37775474 11.4966669,7.40026979 11.501,7.422 L11.501,7.664 C11.5310403,7.84186279 11.4820018,8.02398134 11.3667132,8.16271184 C11.2514247,8.30144234 11.0813566,8.38298225 10.901,8.386 C10.6630261,8.42998181 10.4230312,8.31998417 10.301,8.111 C10.2622571,7.5380088 9.95242031,7.01789909 9.467,6.711 C10.0391398,6.43434005 10.4334728,5.88813803 10.516,5.258 C10.4950171,4.70186297 10.1939291,4.19415335 9.716,3.909 C9.38646114,3.69611081 9.0076023,3.57177623 8.616,3.548 L3.19,3.548 C3.93960608,2.70886991 4.94535237,2.14078672 6.051,1.932 L6.691,2.6 C6.83556722,2.75072107 7.07482025,2.75608749 7.226,2.612 L7.942,1.93 C9.41810082,2.20749536 10.6978028,3.11937444 11.442,4.424 L10.953,5.53 C10.868832,5.72138104 10.9550737,5.94480536 11.146,6.03 L12.089,6.45 C12.106,6.617 12.114,6.787 12.114,6.958 L12.115,6.957 Z M6.692,1.357 C6.85805157,1.19935601 7.12040519,1.20598105 7.27828844,1.37180514 C7.4361717,1.53762923 7.42992496,1.79999212 7.2643287,1.95811432 C7.09873244,2.11623651 6.83636081,2.11036809 6.678,1.945 C6.52139915,1.77972639 6.52719985,1.5191414 6.691,1.361 L6.692,1.357 Z M11.554,5.269 C11.6474903,5.059989 11.8925955,4.96618696 12.1017395,5.05937947 C12.3108835,5.15257198 12.4050346,5.39754331 12.3121401,5.60681982 C12.2192456,5.81609632 11.9744086,5.91059628 11.765,5.818 C11.5574146,5.72464761 11.4633943,5.48179887 11.554,5.273 L11.554,5.269 Z"></path>
        </g>
    </g>
</svg>