<?xml version="1.0" encoding="UTF-8"?>
<svg width="16px" height="16px" viewBox="0 0 16 16" version="1.1" xmlns="http://www.w3.org/2000/svg" xmlns:xlink="http://www.w3.org/1999/xlink">
    <title>file_type_csharp</title>
    <g id="file_type_csharp" stroke="none" stroke-width="1" fill="none" fill-rule="evenodd">
        <path d="M11.0210196,1.79604575 L12.9789804,2.20395425 L12.396,4.99904575 L14,5 L14,6.60000002 L12.062,6.59904575 L11.5,9.29904575 L13,9.30000019 L13,11.0000002 L11.145,10.9990457 L10.4789804,14.2039543 L8.52101958,13.7960457 L9.104,10.9990457 L6.145,10.9990457 L5.47898042,14.2039543 L3.52101958,13.7960457 L4.104,10.9990457 L2,11.0000002 L2,9.30000019 L4.458,9.29904575 L5.02,6.59904575 L3,6.60000002 L3,5 L5.354,4.99904575 L6.02101958,1.79604575 L7.97898042,2.20395425 L7.396,4.99904575 L10.354,4.99904575 L11.0210196,1.79604575 Z M10.02,6.59904575 L7.062,6.59904575 L6.5,9.29904575 L9.458,9.29904575 L10.02,6.59904575 Z" id="Combined-Shape" fill="#6A9FB5" fill-rule="nonzero"></path>
    </g>
</svg>