<?xml version="1.0" encoding="UTF-8"?>
<svg width="16px" height="16px" viewBox="0 0 16 16" version="1.1" xmlns="http://www.w3.org/2000/svg" xmlns:xlink="http://www.w3.org/1999/xlink">
    <title>file_type_perl</title>
    <g id="file_type_perl" stroke="none" stroke-width="1" fill="none" fill-rule="evenodd">
        <g transform="translate(1.000000, 2.000000)" fill="#759EB3" id="file_type_perl.svg">
            <path d="M9.35559715,0.00505884722 C9.25557156,0.00505884722 9.14754391,0.0160588472 9.03451499,0.0210588472 C8.705739,0.101651753 8.38207852,0.201830597 8.06526699,0.321058847 C7.56696484,0.454619654 7.14207918,0.780485801 6.88396473,1.22705885 C6.76382931,1.42201841 6.63223122,1.60968137 6.48986389,1.78905885 C6.25812204,2.01202364 5.99737489,2.20274081 5.71466554,2.35605885 C5.33964381,2.55963282 5.00989393,2.83724588 4.74541753,3.17205885 C4.48421096,3.54313101 4.29894724,3.9621617 4.20027805,4.40505885 C3.93621048,4.65005885 3.72715699,4.31205885 3.79417414,4.07605885 C4.03004317,3.54104097 4.16955386,2.96858414 4.20627958,2.38505885 C4.23088937,1.44883036 3.56943037,0.634314929 2.64788083,0.466058847 C2.42640188,0.458130365 2.21293949,0.549433691 2.06573188,0.715058847 C1.89275888,0.854189515 1.68540334,0.94402059 1.46557831,0.975058847 C1.1062792,0.997054874 0.749539316,1.04991649 0.399305485,1.13305885 C0.211998681,1.25094218 0.0724075022,1.43123083 0.00520464537,1.64205885 C-0.0234605105,1.8037679 0.0686442321,1.9625868 0.22326044,2.01805885 C0.563347458,2.15805885 1.1434959,2.05405885 1.21651459,2.46805885 C1.02025805,2.83900512 0.881314732,3.23752205 0.804409139,3.65005885 C0.802643322,4.10012052 0.831047544,4.54979463 0.889430894,4.99605885 C1.04708076,5.51832191 1.34208833,5.98869368 1.74364946,6.35805885 C2.27070051,7.03421123 3.1175601,7.37926678 3.96721841,7.26405885 C4.13486666,7.15851427 4.35396443,7.18752363 4.48835176,7.33305885 C4.5684318,7.44608652 4.58432437,7.59248772 4.53036251,7.72005885 C4.47867969,8.05138987 4.47867969,8.38872782 4.53036251,8.72005885 C4.5701621,8.94231008 4.59256904,9.16732521 4.59737965,9.39305885 C4.60180966,9.5475839 4.62635575,9.70087366 4.67039834,9.84905885 C4.70366311,10.0165839 4.7177573,10.1873485 4.71240909,10.3580588 C4.71941088,10.5720588 4.73241421,10.7820588 4.74241677,10.8240588 C4.77608559,11.0634778 4.75973745,11.3072752 4.69440448,11.5400588 C4.64820228,11.7772782 4.57504264,12.0084437 4.47634869,12.2290588 C4.43533819,12.3090588 4.31230671,12.4960588 4.22228368,12.6480588 L4.24128854,12.6550588 C4.39132693,12.6430588 4.62338631,12.6330588 4.95647154,12.6130588 C4.99714726,12.4439942 5.0255617,12.2722144 5.04149329,12.0990588 C5.05105667,11.9664098 5.07078628,11.8346899 5.10050839,11.7050588 C5.12569489,11.5878881 5.14406375,11.4693558 5.15552247,11.3500588 C5.16351435,11.1578934 5.22217724,10.9712551 5.32556598,10.8090588 C5.38085577,10.7063638 5.42930674,10.600133 5.47060309,10.4910588 C5.51354489,10.3348291 5.52376068,10.1714183 5.50061077,10.0110588 C5.48950212,9.82992823 5.5016033,9.64812092 5.53661998,9.47005885 C5.56305283,9.24421746 5.635203,9.02612111 5.74867424,8.82905885 C5.87481539,8.65441358 5.94271268,8.44447569 5.94272389,8.22905885 C5.92616247,8.01546353 5.99854936,7.80450974 6.14277508,7.64605885 C6.20766497,7.5821483 6.29385113,7.544407 6.38483701,7.54005885 C6.42284674,7.54005885 6.46785826,7.54005885 6.51787105,7.54005885 C6.65192758,7.51438878 6.79037803,7.55120129 6.89396729,7.64005885 C6.96237416,7.74503691 6.96924584,7.87861885 6.91197189,7.99005885 C6.88377559,8.10319286 6.86338903,8.21813027 6.85095628,8.33405885 C6.84108919,8.52582217 6.7780573,8.71106081 6.6689097,8.86905885 C6.53225456,9.04889765 6.47745016,9.27785611 6.51787105,9.50005885 C6.49996135,9.64400753 6.51222461,9.79010737 6.55388027,9.92905885 C6.57607974,9.98786127 6.60674394,10.0431101 6.64490356,10.0930588 C6.79376755,10.23523 6.95856969,10.3597228 7.13602922,10.4640588 C7.35591538,10.6029192 7.5558115,10.7711389 7.73018125,10.9640588 C7.91585546,11.1167984 8.05455638,11.3189033 8.13028363,11.5470588 C8.11237513,11.7496143 8.01402114,11.9365471 7.85721375,12.0660588 C7.76866255,12.1421466 7.66697312,12.2014502 7.55713697,12.2410588 C7.41766349,12.2673983 7.29750199,12.3552003 7.23005328,12.4800588 C7.22570683,12.4957638 7.22570683,12.5123539 7.23005328,12.5280588 C7.63015566,12.5280588 8.03025803,12.5280588 8.43536169,12.5390588 C8.48474503,12.4978618 8.52582162,12.4476323 8.55639265,12.3910588 C8.57750568,12.3086509 8.64330195,12.245193 8.72643616,12.2270588 C8.82337391,12.2635945 8.90324286,12.3348878 8.95049349,12.4270588 C8.98990256,12.4806129 9.03445962,12.5301825 9.08352753,12.5750588 C9.24756951,12.5840588 9.40761046,12.5950588 9.56865166,12.6070588 C9.63753252,12.5210786 9.67961993,12.4167563 9.68968263,12.3070588 C9.70605509,12.2263087 9.70400371,12.1429069 9.6836811,12.0630588 C9.66078167,11.8600773 9.54419289,11.6795035 9.36860048,11.5750588 C9.30900901,11.5333341 9.25401981,11.4853984 9.2045585,11.4320588 C9.14437333,11.3497427 9.12419081,11.2448205 9.14954443,11.1460588 C9.22410845,10.9503236 9.33509376,10.7704852 9.47662812,10.6160588 C9.60276526,10.4720942 9.71433768,10.3159998 9.80971334,10.1500588 C9.86637607,10.0625426 9.9358308,9.98400466 10.0157661,9.91705885 C10.0882358,9.85208105 10.1533127,9.77930738 10.2098157,9.70005885 L10.257828,9.61505885 L10.257828,9.13105885 C10.2552164,8.79032945 10.2796325,8.44992942 10.3308467,8.11305885 C10.3846304,7.72223236 10.5344681,7.35082606 10.7669583,7.03205885 C10.799764,6.88203405 10.9169719,6.76485622 11.0670351,6.73205885 C11.2170734,6.73205885 11.3080967,6.87705885 11.352108,7.18205885 C11.4332488,7.47224291 11.5407223,7.75441423 11.6731902,8.02505885 C11.7330921,8.21916554 11.8185281,8.40445381 11.9272552,8.57605885 C12.0535097,8.78836576 12.1513689,9.01630932 12.2183296,9.25405885 C12.2411296,9.40659738 12.2491688,9.56097799 12.2423358,9.71505885 C12.2290166,9.95374472 12.2516073,10.1930774 12.3093529,10.4250588 C12.3553925,10.7015276 12.3694886,10.9823712 12.3513637,11.2620588 C12.3456526,11.416962 12.3064076,11.5687844 12.2363342,11.7070588 C12.1361333,11.9265873 12.0648533,12.1581881 12.02428,12.3960588 C12.0083446,12.5449147 11.9587476,12.6881962 11.8792429,12.8150588 C11.8732413,12.8260588 11.8722411,12.8360588 11.8672398,12.8470588 C12.3813714,12.9200588 12.6864494,12.9750588 12.860494,13.0060588 C12.8824996,12.8700588 12.8394886,12.7300588 12.8484909,12.5930588 C12.8412836,12.4097785 12.7981217,12.2297002 12.7214584,12.0630588 C12.5868748,11.837906 12.5558912,11.5656847 12.6364366,11.3160588 C12.659248,11.1989341 12.6732905,11.0802717 12.6784474,10.9610588 C12.6723183,10.7740661 12.7117973,10.588391 12.7934768,10.4200588 C12.8603352,10.2940994 12.8976207,10.154571 12.9025047,10.0120588 C12.9181192,9.84500753 12.8832773,9.67711266 12.8024791,9.53005885 C12.7254034,9.40271813 12.7054384,9.2488452 12.747465,9.10605885 C12.7885654,8.84265165 12.7885654,8.57446604 12.747465,8.31105885 C12.6947761,7.86578414 12.679719,7.41686201 12.7024535,6.96905885 L12.7874753,6.14805885 C12.7874876,5.90844441 12.9052796,5.68413618 13.1025559,5.54805885 C13.2537339,5.6175698 13.3506078,5.76870118 13.3506194,5.93505885 C13.3886291,6.16605885 13.3696242,6.40405885 13.4176365,6.63505885 C13.4684634,6.95680378 13.3877188,7.28546573 13.1935792,7.54705885 C13.1009597,7.65151932 13.0569773,7.79033743 13.0725482,7.92905885 C13.1020255,8.00627877 13.1643432,8.06638162 13.2425917,8.09305885 C13.2772699,8.09598242 13.3120449,8.08868155 13.3426173,8.07205885 C13.4531841,7.99175844 13.5461189,7.88965841 13.6156872,7.77205885 C13.7065561,7.65567487 13.7891147,7.53303824 13.8627504,7.40505885 C14.0134556,6.85615336 14.0404444,6.2806533 13.9417706,5.72005885 C13.9741681,5.39236687 13.831197,5.07190471 13.5656744,4.87705885 C13.0334264,4.3054137 12.6058141,3.64469661 12.3023511,2.92505885 C12.179305,2.74709241 12.0414468,2.57983152 11.8902457,2.42505885 C11.6971138,2.23586645 11.5517465,2.0034753 11.4661372,1.74705885 C11.3326816,1.37691065 11.157864,1.02300399 10.9450038,0.692058847 C10.7454399,0.451536232 10.492276,0.261112552 10.2058147,0.136058847 C9.93558102,0.028799401 9.64458602,-0.0159839016 9.35459689,0.00505884722 L9.35459689,0.00505884722 L9.35559715,0.00505884722 Z M9.02251192,7.35505885 C9.04932058,7.35884914 9.07457609,7.36991721 9.09553061,7.38705885 C9.2110066,7.52619062 9.25963458,7.70895583 9.22856464,7.88705885 C9.25057028,8.08705885 9.27757719,8.34505885 9.29558179,8.45405885 C9.35717588,8.71427889 9.37976144,8.98220315 9.36259894,9.24905885 C9.35159613,9.33305885 9.33959305,9.50605885 9.33259126,9.63105885 C9.32670697,9.93533936 9.22131017,10.2293212 9.03251448,10.4680588 C8.96549733,10.5680588 8.88347635,10.6990588 8.8504679,10.7600588 C8.807277,10.8569924 8.73535002,10.9383259 8.64441518,10.9930588 C8.56449562,11.0217051 8.47617849,11.0151647 8.40135298,10.9750588 C8.23842297,10.8909499 8.08599582,10.7879033 7.94723679,10.6680588 C7.8276181,10.5616038 7.72625033,10.4362777 7.64716001,10.2970588 C7.54811246,10.1891532 7.48822375,10.0510922 7.4771165,9.90505885 C7.48274457,9.75413095 7.56196462,9.61553134 7.68917076,9.53405885 C7.7561879,9.47705885 7.90222527,9.35005885 8.01025291,9.25305885 C8.18132691,9.14300882 8.28778032,8.95629625 8.29532586,8.75305885 C8.31632472,8.55112661 8.40851231,8.36325383 8.5553924,8.22305885 C8.65312276,8.0789309 8.72113189,7.91677063 8.75544359,7.74605885 C8.76483,7.60191077 8.83277098,7.46787006 8.9434917,7.37505885 C8.96770064,7.36166141 8.99484417,7.35444789 9.02251192,7.35405885 L9.02251192,7.35405885 L9.02251192,7.35505885 Z"></path>
        </g>
    </g>
</svg>