<?xml version="1.0" encoding="UTF-8"?>
<svg width="16px" height="16px" viewBox="0 0 16 16" version="1.1" xmlns="http://www.w3.org/2000/svg" xmlns:xlink="http://www.w3.org/1999/xlink">
    <title>file_type_default</title>
    <g id="file_type_default" stroke="none" stroke-width="1" fill="none" fill-rule="evenodd">
        <path d="M8.72699906,6.24138745 L10.655,4.81 C11.0537492,4.51093811 11.4292714,4.35 11.795,4.35 C12.3773964,4.35 12.775,4.69790312 12.775,5.27 C12.775,5.72167852 12.5380315,6.08624548 12.1220499,6.31023555 L12.0819596,6.32957252 L11.6764427,6.50309157 L9.42789852,7.55240935 C9.24830501,7.63692394 9.205,7.6776816 9.205,7.58 C9.205,7.4823184 9.24830501,7.52307606 9.42838775,7.6078212 L12.0644895,8.8533272 C12.5179144,9.02772139 12.775,9.40346183 12.775,9.89 C12.775,10.4620969 12.3773964,10.81 11.795,10.81 C11.4292714,10.81 11.0537492,10.6490619 10.6609142,10.354368 L8.7305645,8.95045534 L8.99194187,11.2447842 C9.01382472,11.4417299 9.025,11.6093591 9.025,11.75 C9.025,12.4097592 8.65079535,12.85 8.015,12.85 C7.36642326,12.85 6.975,12.4150853 6.975,11.75 C6.975,11.6814582 6.98596799,11.6156503 7.005,11.57 L7.00821343,11.2434041 L7.26943493,8.95047626 L5.3333416,10.3584839 C4.91631724,10.6528541 4.56273889,10.81 4.235,10.81 C3.63796423,10.81 3.225,10.4699118 3.225,9.89 C3.225,9.354955 3.62979084,8.96515641 4.32584993,8.65584557 L6.60210148,7.60759065 C6.78169499,7.52307606 6.825,7.4823184 6.825,7.58 C6.825,7.6776816 6.78169499,7.63692394 6.60584993,7.55415443 L4.33193077,6.50690577 C3.62789411,6.19400059 3.225,5.82095049 3.225,5.3 C3.225,4.70895661 3.6318175,4.35 4.235,4.35 C4.5839774,4.35 4.94648742,4.51111556 5.34305,4.8085449 L7.27306643,6.24144307 L7.005,3.89 L7.01470966,3.71805807 C6.98857304,3.58737498 6.975,3.49236367 6.975,3.41 C6.975,2.74491474 7.36642326,2.31 8.015,2.31 C8.65079535,2.31 9.025,2.75024076 9.025,3.41 C9.025,3.56976612 9.01386765,3.74788372 8.99170447,3.94731205 L8.72699906,6.24138745 Z" id="*-copy" fill="#7C8F9B" fill-rule="nonzero"></path>
    </g>
</svg>