<?xml version="1.0" encoding="UTF-8"?>
<svg width="16px" height="16px" viewBox="0 0 16 16" version="1.1" xmlns="http://www.w3.org/2000/svg" xmlns:xlink="http://www.w3.org/1999/xlink">
    <title>file_type_cpp</title>
    <g id="file_type_cpp" stroke="none" stroke-width="1" fill="none" fill-rule="evenodd">
        <g transform="translate(0.000000, 2.000000)" fill="#6A9FB5" id="file_type_cpp.svg">
            <path d="M9.13370938,1.08288334 L9.13370938,2.6957847 C8.65346279,2.23932887 8.09336589,1.87508521 7.48136496,1.62122781 C6.89159836,1.38224392 6.26067842,1.26127534 5.62434303,1.26517424 C4.50583511,1.19366271 3.4147172,1.63034486 2.65438717,2.4537962 C1.90673579,3.42942587 1.54025448,4.64408213 1.62353746,5.87041806 C1.54087682,7.09799918 1.90723939,8.31377737 2.65438717,9.29130404 C3.41731986,10.1108885 4.50800331,10.5445007 5.62540906,10.4724638 C6.26174191,10.4763351 6.89265653,10.3553675 7.48243099,10.1164102 C8.09445462,9.86259592 8.65455901,9.49834739 9.13477541,9.04185333 L9.13477541,10.6408963 C8.61109875,10.9985682 8.03593821,11.2742858 7.42912955,11.4585403 C6.81448765,11.6438076 6.1756808,11.7365029 5.53373059,11.7335757 C4.02146039,11.8145674 2.54688912,11.2441412 1.48282167,10.1665136 C0.449755896,8.98170547 -0.0789856012,7.4398616 0.009570062,5.87041806 C-0.0773869782,4.30302888 0.452996407,2.76392212 1.48708579,1.58285078 C2.54765009,0.501714096 4.02132875,-0.0720733252 5.53373059,0.00726041478 C6.18051661,0.00296773058 6.82434133,0.0949426913 7.44405395,0.280163752 C8.04595581,0.457283141 8.61617325,0.728181394 9.13370938,1.08288334 M7.4717707,3.2053464 L7.4717707,5.33740373 L9.60382802,5.33740373 L9.60382802,6.40343239 L7.4717707,6.40343239 L7.4717707,8.53548972 L6.40574204,8.53548972 L6.40574204,6.40343239 L4.27368471,6.40343239 L4.27368471,5.33740373 L6.40574204,5.33740373 L6.40574204,3.2053464 L7.4717707,3.2053464 M13.8679427,3.2053464 L13.8679427,5.33740373 L16,5.33740373 L16,6.40343239 L13.8679427,6.40343239 L13.8679427,8.53548972 L12.801914,8.53548972 L12.801914,6.40343239 L10.6698567,6.40343239 L10.6698567,5.33740373 L12.801914,5.33740373 L12.801914,3.2053464 L13.8679427,3.2053464"></path>
        </g>
    </g>
</svg>