<?xml version="1.0" encoding="UTF-8"?>
<svg width="16px" height="16px" viewBox="0 0 16 16" version="1.1" xmlns="http://www.w3.org/2000/svg" xmlns:xlink="http://www.w3.org/1999/xlink">
    <title>file_type_binary</title>
    <g id="file_type_binary" stroke="none" stroke-width="1" fill="none" fill-rule="evenodd">
        <path d="M0.954101562,8.27099609 C0.954101562,6.6290608 1.21435287,5.39868573 1.73486328,4.57983398 C2.2553737,3.76098223 3.03824347,3.3515625 4.08349609,3.3515625 C5.13298051,3.3515625 5.91796615,3.7599243 6.43847656,4.57666016 C6.95898698,5.39339601 7.21923828,6.62482901 7.21923828,8.27099609 C7.21923828,9.91293139 6.95898698,11.1422485 6.43847656,11.9589844 C5.91796615,12.7757202 5.13298051,13.184082 4.08349609,13.184082 C3.03824347,13.184082 2.2553737,12.7746623 1.73486328,11.9558105 C1.21435287,11.1369588 0.954101562,9.90869959 0.954101562,8.27099609 Z M3.13769531,10.8037109 C3.33658954,11.3326849 3.65185331,11.597168 4.08349609,11.597168 C4.51937067,11.597168 4.83675031,11.3326849 5.03564453,10.8037109 C5.23453875,10.2747369 5.33398438,9.4305071 5.33398438,8.27099609 C5.33398438,7.83088973 5.31917333,7.43733897 5.28955078,7.09033203 L3.07421875,10.6196289 C3.09537771,10.6873376 3.11653635,10.7486976 3.13769531,10.8037109 Z M4.08349609,4.93847656 C3.65185331,4.93847656 3.33658954,5.20295959 3.13769531,5.73193359 C2.93880109,6.26090759 2.83935547,7.1072533 2.83935547,8.27099609 C2.83935547,8.63069841 2.84781893,8.95865737 2.86474609,9.25488281 L5.04833984,5.77001953 L5.03564453,5.73193359 C4.83675031,5.20295959 4.51937067,4.93847656 4.08349609,4.93847656 Z M9.19335938,11.3496094 L11.2880859,11.3496094 L11.2880859,5.19873047 L9.33935547,5.68115234 L9.33935547,3.99267578 L11.3007812,3.52294922 L13.1098633,3.52294922 L13.1098633,11.3496094 L15.2045898,11.3496094 L15.2045898,13 L9.19335938,13 L9.19335938,11.3496094 Z" id="01" fill="#8A9199"></path>
    </g>
</svg>